<svg id="Layer_1" data-name="Layer 1" xmlns="http://www.w3.org/2000/svg" viewBox="0 0 100 43.28"><defs><style>.cls-1{fill:#fff;}.cls-2{fill:#a6a8ab;}</style></defs><title>miller-icon</title><path class="cls-1" d="M21.39,11.38,15.66,27.13c-.91,2.73-2.09,6.55-2.09,9.29,0,4,2.64,4.82,6,4.82.64,0,1.64.09,1.64.91s-1.09,1.09-1.82,1.09H1.55C.82,43.24,0,43.06,0,42.15s1.18-1.09,1.91-1.09c7.28-.27,12.29-15,14.38-20.48L20.21,9.92c-1.91-2.46-4.46-1.55-4.46-2.64,0-.46.82-.64,1.09-.73C22.21,5.46,25.12,0,26.22,0s2.09,3.64,2.37,4.19l9.83,24.76L45.7,9.83c-2.64-2-4.1-1.18-4.1-2.18,0-.46.64-.55,1-.64,6-1.91,7.46-7,8.74-7,.73,0,1.09,1.09,1.27,1.82L59.9,19.75C68.82,42,69.73,41,74.28,41.24c.73,0,1.73.27,1.73,1.27,0,.73-1.18.73-1.73.73H53.43c-.73,0-2,0-2-1,0-.82.55-1,1.27-1,1.91-.18,4.46-.64,4.46-3,0-1.91-1.27-4.55-1.91-6.19L46.88,11.38,39.51,31.77c1.73,3.37,3.19,8.92,7.74,9.47.64,0,1.27.27,1.27,1,0,1.37-2.64,1-3.28,1H27.49c-.82,0-3.37.27-3.37-1.09,0-1,1.46-1.09,2.28-1.09,2.28-.09,5.19-.27,5.19-3.28,0-2.09-1.46-5.28-2.28-7.28Z"/><path class="cls-2" d="M38,33.53A171.86,171.86,0,0,1,60.44,17.67C74.69,9.06,98.22,9.89,99.38,9.89s.33-.83.33-.83C89.77,2.93,87,3.26,87,3.26c-12.76,0-24.49,9-28,11.08C51.16,19,38.18,32.18,38.18,32.18S36,34.13,36.41,34.62C36.65,34.92,37.75,33.68,38,33.53Z"/></svg>