<svg id="Layer_1" data-name="Layer 1" xmlns="http://www.w3.org/2000/svg" viewBox="0 0 19 19"><defs><style>.cls-1{fill:#303030;}</style></defs><title>Artboard 1</title><path class="cls-1" d="M9.5,3.16A6.34,6.34,0,1,0,15.84,9.5,6.34,6.34,0,0,0,9.5,3.16Zm0,12.21A5.87,5.87,0,1,1,15.37,9.5,5.87,5.87,0,0,1,9.5,15.37Z"/><path class="cls-1" d="M9.5,2.82A6.68,6.68,0,1,0,16.18,9.5,6.68,6.68,0,0,0,9.5,2.82Zm0,12.87A6.19,6.19,0,1,1,15.69,9.5,6.19,6.19,0,0,1,9.5,15.69Z"/><circle class="cls-1" cx="9.5" cy="9.5" r="2.52"/></svg>